<svg width="700" height="261" viewBox="0 0 700 261" fill="none" xmlns="http://www.w3.org/2000/svg">
<rect y="29" width="113" height="20" rx="10" fill="#0B0606"/>
<rect x="218.836" y="33.9563" width="113" height="20" transform="rotate(-2.40901 218.836 33.9563)" fill="#0B0606"/>
<rect x="446" y="29" width="113" height="20" fill="#0B0606"/>
<rect y="111" width="113" height="20" rx="10" fill="#0B0606"/>
<rect x="222.283" y="115.884" width="113" height="20" transform="rotate(-2.40901 222.283 115.884)" fill="#0B0606"/>
<rect x="446" y="111" width="113" height="20" fill="#0B0606"/>
<rect y="29" width="20" height="102" rx="10" fill="#0B0606"/>
<rect x="219.256" y="43.9474" width="20" height="72" transform="rotate(-2.40901 219.256 43.9474)" fill="#0B0606"/>
<rect x="446" y="39" width="20" height="72" fill="#0B0606"/>
<rect x="53" y="39" width="20" height="72" fill="#0B0606"/>
<rect x="272.209" y="41.7197" width="20" height="72" transform="rotate(-2.40901 272.209 41.7197)" fill="#0B0606"/>
<rect x="499" y="39" width="20" height="72" fill="#0B0606"/>
<rect x="142" y="2" width="20" height="146" rx="10" fill="#0B0606"/>
<rect x="359.576" y="1.01149" width="20" height="146" transform="rotate(-2.40901 359.576 1.01149)" fill="#0B0606"/>
<rect x="588" y="2" width="20" height="146" fill="#0B0606"/>
<rect x="152" y="74" width="32" height="20" rx="10" fill="#0B0606"/>
<rect x="372.593" y="72.5275" width="32" height="20" transform="rotate(-2.40901 372.593 72.5275)" fill="#0B0606"/>
<rect x="598" y="74" width="32" height="20" fill="#0B0606"/>
<ellipse cx="98" cy="208" rx="65" ry="50" fill="black"/>
<circle cx="339.26" cy="208.048" r="50" transform="rotate(-2.40901 339.26 208.048)" fill="black"/>
<circle cx="559" cy="208" r="50" fill="black"/>
<ellipse cx="98" cy="208" rx="45" ry="30" fill="white"/>
<circle cx="339.26" cy="208.048" r="30" transform="rotate(-2.40901 339.26 208.048)" fill="white"/>
<circle cx="559" cy="208" r="30" fill="white"/>
<rect x="679.478" y="5.50648" width="20" height="177" rx="10" transform="rotate(4.18051 679.478 5.50648)" fill="black"/>
<rect x="665.588" y="196.956" width="20" height="20" transform="rotate(13.3914 665.588 196.956)" fill="black"/>
</svg>
